<svg width="48" height="48" viewBox="0 0 48 48" fill="none" xmlns="http://www.w3.org/2000/svg">
<path d="M24.0028 6.13188e-06C37.2106 -0.00936887 48 10.7325 48 23.8988C48 37.2431 37.3025 47.9963 24.0028 48C20.8515 48.0007 17.7308 47.3807 14.8191 46.1753C11.9073 44.9698 9.26146 43.2026 7.03259 40.9745C2.53119 36.4747 0.00149233 30.3708 6.60057e-07 24.0056C-0.00149101 17.6404 2.52535 11.5353 7.02464 7.03342C11.5239 2.53149 17.6271 0.00149797 23.9916 6.13188e-06H24.0028ZM35.8945 23.6437C35.8901 23.1368 35.8519 22.6307 35.7802 22.1288C34.8615 17.2988 32.1394 13.9519 27.4018 12.5325C22.7373 11.1338 18.5678 12.3 15.2907 15.8588C11.9161 19.515 11.3087 23.82 13.0185 28.485C13.2201 29.0565 13.2781 29.6689 13.1872 30.2681C12.9285 31.8656 12.5404 33.4406 12.2273 35.0287C12.0623 35.8631 12.2817 36.0656 13.0916 35.8781C14.6383 35.5219 16.1737 35.1075 17.7317 34.8131C18.323 34.6904 18.9364 34.73 19.5071 34.9275C27.4074 38.0756 35.9339 32.3081 35.8945 23.6437V23.6437Z" fill="white"/>
<path d="M35.8946 23.6438C35.9339 32.3082 27.4074 38.0813 19.5071 34.9275C18.9364 34.73 18.323 34.6905 17.7317 34.8132C16.1737 35.1075 14.6383 35.5219 13.0916 35.8782C12.2817 36.0657 12.0623 35.8632 12.2273 35.0288C12.5404 33.4407 12.9285 31.8657 13.1872 30.2682C13.2781 29.6689 13.2201 29.0566 13.0185 28.485C11.3087 23.82 11.9236 19.515 15.2907 15.8588C18.5678 12.2963 22.7373 11.1338 27.4018 12.5325C32.1394 13.9519 34.8615 17.2988 35.7802 22.1288C35.8519 22.6307 35.8901 23.1368 35.8946 23.6438V23.6438ZM15.3451 32.6907C16.0219 32.535 16.5693 32.4469 17.0905 32.28C18.2885 31.8938 19.3402 32.0063 20.5626 32.5163C27.1112 35.2632 34.1623 29.7844 33.2174 22.7288C32.7112 18.9469 30.5927 16.3444 26.9968 15.1238C23.401 13.9032 20.1089 14.6813 17.4355 17.3738C14.762 20.0663 13.9071 23.4019 15.2813 26.9363C15.9713 28.7082 15.9469 30.2607 15.4951 31.9557C15.4444 32.1263 15.4201 32.3119 15.3451 32.6907Z" fill="#181A1D"/>
<path d="M15.3451 32.6905C15.4201 32.3155 15.4444 32.128 15.4913 31.9405C15.9431 30.253 15.9675 28.693 15.2776 26.9211C13.9034 23.3924 14.7527 20.0568 17.4317 17.3586C20.1108 14.6605 23.4066 13.8899 26.9931 15.1086C30.5796 16.3274 32.7074 18.9318 33.2136 22.7136C34.151 29.7693 27.1075 35.248 20.5589 32.5011C19.3421 31.9911 18.2847 31.8786 17.0868 32.2649C16.5693 32.4468 16.0219 32.5405 15.3451 32.6905ZM27.3437 29.6905C28.4198 29.8518 29.3609 29.098 30.1015 28.003C30.6133 27.253 30.4314 26.7186 29.5803 26.4355C29.0497 26.2593 28.4985 26.143 27.9717 25.9574C27.3062 25.723 26.7587 25.8186 26.3088 26.3943C25.8589 26.9699 25.2364 27.0561 24.674 26.5818C23.5766 25.6705 22.5067 24.7268 21.4644 23.7505C20.9319 23.2518 20.9451 22.7043 21.4306 22.1005C21.6687 21.8024 21.8749 21.2868 21.7831 20.9549C21.5459 20.1829 21.2319 19.4367 20.8457 18.7274C20.527 18.1011 20.0395 18.0205 19.4602 18.448C18.251 19.3405 17.7729 20.5949 18.1198 22.0668C18.6822 24.4536 20.3283 26.0699 22.1205 27.5493C23.5229 28.723 25.0789 29.623 27.3456 29.6943L27.3437 29.6905Z" fill="white"/>
<path d="M27.3455 29.6943C25.0808 29.6231 23.5229 28.7231 22.1149 27.5587C20.3226 26.0793 18.6766 24.4631 18.1141 22.0762C17.7673 20.6043 18.2454 19.35 19.4546 18.4575C20.0339 18.03 20.5214 18.1106 20.8401 18.7368C21.2262 19.4461 21.5403 20.1923 21.7775 20.9643C21.8693 21.2962 21.6631 21.8118 21.425 22.1099C20.9394 22.7137 20.9263 23.2612 21.4587 23.76C22.5036 24.7337 23.5735 25.6774 24.6684 26.5912C25.2308 27.0581 25.8326 26.9962 26.3032 26.4037C26.7737 25.8112 27.3006 25.7324 27.9661 25.9668C28.4929 26.1543 29.0441 26.2687 29.5747 26.4449C30.4258 26.7281 30.6077 27.2568 30.0959 28.0125C29.3628 29.1018 28.4217 29.8556 27.3455 29.6943Z" fill="#181A1D"/>
</svg>
