<?xml version="1.0" standalone="no"?>
<!DOCTYPE svg PUBLIC "-//W3C//DTD SVG 20010904//EN"
 "http://www.w3.org/TR/2001/REC-SVG-20010904/DTD/svg10.dtd">
<svg version="1.0" xmlns="http://www.w3.org/2000/svg"
 width="1024.000000pt" height="1024.000000pt" viewBox="0 0 1024.000000 1024.000000"
 preserveAspectRatio="xMidYMid meet">

<g transform="translate(0.000000,1024.000000) scale(0.100000,-0.100000)"
fill="#000000" stroke="none">
<path d="M7095 8276 c-127 -31 -212 -111 -222 -210 -6 -54 -6 -55 -73 -100
-37 -26 -91 -71 -120 -102 l-53 -56 -108 51 c-302 142 -608 229 -990 282 -273
37 -672 37 -924 -1 -33 -5 -78 -12 -100 -15 -96 -15 -330 -70 -450 -107 -196
-60 -352 -121 -543 -214 l-173 -84 -253 0 c-139 0 -279 -5 -312 -11 -151 -28
-261 -126 -306 -272 -29 -98 -22 -183 23 -267 l34 -63 -165 -159 c-91 -88
-210 -199 -265 -248 -146 -129 -176 -202 -135 -329 l22 -68 -40 -79 c-184
-367 -284 -889 -268 -1399 12 -417 80 -756 224 -1120 161 -410 422 -803 757
-1142 138 -140 141 -143 184 -143 36 0 49 6 77 34 62 62 45 116 -66 215 -223
198 -495 562 -646 862 -251 501 -362 1064 -321 1634 22 306 98 630 214 908 45
108 48 112 77 101 14 -6 16 -110 16 -1083 0 -1150 0 -1150 50 -1331 23 -82 85
-212 131 -275 44 -59 137 -152 197 -197 108 -80 360 -178 461 -178 50 0 54
-11 31 -80 -67 -199 -41 -393 72 -541 l36 -46 -50 -49 c-61 -59 -88 -100 -116
-177 -46 -123 -16 -257 71 -315 31 -21 55 -27 106 -30 107 -5 174 44 174 128
0 76 -78 125 -145 89 -27 -15 -31 -7 -19 38 14 52 63 117 117 153 l43 30 12
-42 c34 -129 147 -238 246 -238 28 0 35 -6 54 -43 63 -122 152 -182 291 -192
43 -3 56 -10 99 -50 90 -84 210 -122 351 -112 262 20 485 218 558 493 64 247
-32 520 -216 610 -34 17 -54 33 -54 44 0 29 -54 99 -109 140 -29 22 -56 40
-61 40 -4 0 -10 24 -12 53 -3 28 -9 59 -12 68 -7 15 10 17 161 21 146 5 177 9
238 30 82 29 177 76 187 92 4 6 8 7 8 1 0 -5 1 -192 2 -415 l3 -405 31 -65
c36 -75 79 -121 149 -158 l50 -27 614 -5 615 -5 -110 -52 c-392 -186 -798
-282 -1254 -299 -190 -7 -208 -12 -230 -64 -10 -24 -10 -39 -1 -71 21 -70 32
-72 274 -66 586 15 1171 196 1648 508 161 106 363 273 669 555 194 179 325
312 411 421 164 206 310 513 384 802 49 196 55 261 55 648 0 330 -2 367 -19
424 -42 132 -121 210 -310 304 -454 228 -1005 376 -1488 401 -73 4 -133 10
-133 13 0 4 41 72 91 151 50 80 161 256 246 393 100 158 161 247 172 247 32 0
279 107 352 153 41 25 105 71 144 102 l69 56 33 -38 c58 -67 189 -265 257
-387 114 -203 234 -480 267 -611 16 -66 43 -102 83 -113 48 -14 83 -4 112 31
23 28 26 38 21 82 -6 51 -79 249 -161 435 -94 213 -235 451 -403 679 l-70 94
49 93 c55 103 94 213 104 284 5 40 10 49 31 55 37 9 107 85 121 131 17 56 15
168 -3 238 -52 199 -234 399 -443 487 -132 54 -310 74 -427 45z m243 -201
c229 -54 420 -248 430 -437 3 -37 0 -68 -5 -68 -5 0 -67 30 -138 66 -214 108
-449 275 -521 370 -25 32 -26 36 -11 51 32 32 148 41 245 18z m-1973 -125
c325 -30 645 -105 920 -217 89 -36 206 -93 224 -109 2 -1 -12 -36 -31 -76 -80
-168 -115 -317 -125 -523 l-6 -144 -195 -288 c-352 -520 -589 -877 -607 -911
-9 -19 -17 -32 -18 -30 -1 1 -1 122 1 268 l3 265 51 30 c99 59 152 144 153
245 0 85 -21 126 -104 204 -141 133 -412 402 -427 424 -14 21 -14 25 0 41 8 9
27 43 42 76 22 48 27 73 27 135 0 163 -87 289 -244 353 -53 22 -63 22 -624 25
l-570 4 135 50 c217 80 482 141 748 172 140 17 495 20 647 6z m1707 -203 c57
-45 157 -119 223 -163 115 -78 298 -184 316 -184 13 0 11 -45 -3 -75 l-11 -25
-126 66 c-69 36 -157 87 -196 112 -150 98 -365 258 -381 283 -6 11 50 68 68
69 4 0 53 -37 110 -83z m-281 -163 c79 -85 589 -424 702 -467 23 -9 22 -20 -9
-56 l-25 -31 -52 26 c-94 48 -290 166 -402 242 -131 90 -294 218 -302 237 -5
16 35 74 53 74 6 1 21 -11 35 -25z m-1811 -102 c90 -45 116 -178 50 -250 l-21
-22 -954 0 -955 0 -31 -28 c-27 -24 -32 -36 -33 -76 -1 -42 3 -51 32 -77 l32
-29 838 -1 c460 -1 887 -3 949 -4 l112 -3 267 -267 266 -267 -19 -27 c-11 -14
-51 -42 -88 -61 l-68 -35 -201 3 c-124 2 -216 -1 -241 -8 -25 -7 -68 -36 -115
-77 -103 -90 -144 -108 -250 -108 -72 0 -93 4 -134 25 -96 49 -94 44 -223 550
-21 82 -57 120 -113 120 -28 0 -46 -8 -70 -30 -30 -28 -32 -34 -26 -78 3 -26
26 -128 50 -227 50 -205 50 -201 -29 -274 -74 -68 -123 -86 -235 -86 -87 0
-100 3 -149 30 -66 36 -151 120 -151 148 0 11 23 112 50 226 44 177 49 209 39
233 -25 60 -109 76 -160 30 -28 -25 -36 -48 -84 -232 -81 -313 -83 -318 -127
-366 -40 -43 -108 -74 -163 -74 -60 0 -125 32 -203 99 -115 100 -127 105 -247
100 -226 -8 -256 -5 -318 25 -31 15 -69 43 -83 62 l-26 34 73 67 c41 38 169
159 286 270 l211 203 77 0 c90 0 126 19 145 74 15 45 4 81 -32 111 -26 22 -39
25 -103 25 -71 0 -74 1 -103 34 -52 60 -54 138 -5 197 52 61 -9 58 1168 59
1009 0 1082 -1 1115 -18z m1747 -231 c125 -100 284 -207 486 -326 l99 -57 -44
-29 c-24 -16 -46 -29 -49 -29 -11 0 -257 145 -340 201 -80 53 -289 215 -289
223 0 1 5 18 11 37 6 19 12 40 15 47 2 6 6 12 9 12 2 0 49 -35 102 -79z m-39
-353 c60 -46 153 -110 206 -142 111 -69 110 -76 -10 -84 -56 -3 -89 1 -145 18
-91 27 -131 65 -153 141 -20 73 -31 163 -19 156 6 -4 60 -44 121 -89z m-204
-302 c43 -43 169 -116 201 -116 8 0 15 -6 15 -14 0 -11 -198 -325 -220 -350
-5 -4 -26 6 -47 22 -21 17 -55 38 -75 47 -34 14 -42 14 -73 0 -47 -19 -71 -72
-55 -119 11 -33 68 -95 108 -115 12 -7 22 -16 22 -21 0 -5 -86 -145 -192 -312
-165 -262 -274 -440 -628 -1023 -97 -160 -160 -253 -176 -259 -17 -7 -324
-221 -445 -311 l-86 -63 88 270 c49 148 96 285 105 303 19 41 1402 2103 1411
2105 1 0 22 -20 47 -44z m-3811 -517 c98 -94 194 -138 317 -146 133 -9 243 29
334 115 l45 42 63 -48 c112 -85 199 -114 338 -113 137 0 263 45 359 128 l40
34 68 -56 c76 -62 138 -89 239 -103 164 -22 328 29 443 139 48 46 55 49 104
49 l52 0 0 -185 0 -185 -1170 0 c-643 0 -1245 -3 -1337 -7 l-168 -6 0 192 0
191 115 0 116 0 42 -41z m2647 -625 l0 -85 -117 -180 c-65 -99 -168 -255 -228
-347 -61 -92 -123 -194 -139 -227 -36 -75 -96 -250 -147 -425 -22 -74 -42
-143 -45 -153 -5 -16 -65 -17 -1122 -15 l-1117 3 -3 148 -3 147 121 0 c81 0
132 5 154 14 70 29 87 102 37 158 l-29 33 -89 -3 c-48 -1 -112 0 -140 3 l-53
6 0 290 0 289 136 0 136 0 34 34 c36 36 42 67 22 111 -21 46 -54 55 -198 55
l-130 0 0 115 0 115 1460 0 1460 0 0 -86z m1310 -9 c483 -43 909 -161 1330
-368 140 -69 197 -117 224 -189 16 -40 17 -82 14 -399 -5 -402 -10 -446 -94
-699 -41 -123 -186 -440 -202 -440 -4 0 -6 240 -4 532 2 355 -1 545 -8 570 -5
20 -26 50 -45 67 -46 40 -114 43 -167 8 -40 -27 -453 -359 -738 -592 -41 -34
-106 -85 -143 -113 l-68 -52 -685 0 c-377 0 -684 4 -682 8 6 16 155 294 289
542 164 306 303 549 504 887 l150 253 80 0 c44 0 154 -7 245 -15z m1070 -1765
l0 -601 -37 -32 c-21 -18 -94 -84 -163 -147 -234 -213 -492 -442 -597 -528
l-52 -43 -1 627 -1 626 43 41 c24 23 110 96 192 162 83 66 224 181 315 255 90
74 190 155 220 179 31 25 58 48 59 53 18 44 22 -61 22 -592z m-2490 261 c0 -5
-7 -12 -16 -15 -14 -5 -15 -4 -4 9 14 17 20 19 20 6z m-1527 -131 l897 0 -15
-37 c-32 -76 -19 -149 32 -172 41 -19 55 -13 169 60 60 39 115 74 123 77 20 8
-70 -107 -136 -173 -104 -103 -265 -192 -418 -229 l-50 -13 35 -11 c29 -9 17
-10 -65 -5 -59 3 -102 10 -104 17 -2 6 -31 38 -65 72 -98 97 -210 138 -371
137 -184 -1 -370 -80 -484 -206 -33 -36 -35 -37 -85 -31 -281 34 -477 134
-601 309 -52 72 -95 160 -95 194 l0 23 168 -6 c92 -3 571 -6 1065 -6z m2977
-340 c0 -55 -1 -100 -2 -100 -2 0 -30 9 -63 19 -134 42 -245 36 -364 -21 -206
-98 -297 -364 -199 -580 14 -29 51 -81 82 -116 133 -143 300 -176 529 -106 15
5 17 -5 17 -105 l0 -111 -612 0 c-385 0 -627 4 -650 10 -20 6 -50 26 -67 46
l-31 35 0 564 0 565 680 0 680 0 0 -100z m-2802 -170 c77 -33 82 -45 30 -71
-210 -105 -391 -334 -483 -607 l-31 -93 -37 36 c-65 63 -90 126 -95 237 -5
119 18 205 78 296 129 193 358 279 538 202z m2697 -125 c113 -66 147 -231 71
-343 -75 -110 -237 -128 -343 -37 -102 87 -114 245 -25 338 76 80 203 98 297
42z m-2331 -89 c37 -15 76 -60 76 -86 0 -13 -11 -20 -37 -25 -21 -3 -67 -19
-103 -34 -239 -100 -457 -378 -511 -651 l-12 -61 -28 27 c-16 15 -34 43 -40
62 -24 74 20 249 101 400 138 255 403 431 554 368z m211 -316 c3 -6 -2 -13
-12 -16 -50 -14 -146 -70 -203 -118 -164 -135 -287 -370 -291 -554 -2 -72 -4
-80 -19 -72 -22 12 -44 46 -59 92 -10 30 -9 54 3 123 39 228 228 471 419 536
57 20 152 25 162 9z m215 -226 c80 -40 115 -120 115 -264 0 -102 -1 -107 -39
-185 -45 -92 -124 -176 -200 -214 -68 -33 -179 -48 -238 -32 -54 15 -112 60
-135 104 -24 47 -20 160 10 246 45 130 168 280 270 333 72 36 160 41 217 12z"/>
<path d="M5678 7504 c-32 -10 -58 -27 -82 -55 -119 -140 -26 -353 153 -352
226 2 300 297 100 397 -59 29 -101 32 -171 10z m102 -199 c0 -27 -17 -36 -42
-23 -22 11 -23 22 -3 42 21 20 45 10 45 -19z"/>
<path d="M2572 6664 c-68 -47 -67 -161 3 -192 109 -50 213 46 160 148 -28 55
-115 78 -163 44z"/>
<path d="M2944 6661 c-43 -26 -61 -79 -45 -132 14 -47 49 -72 101 -72 106 0
155 119 80 195 -35 34 -89 38 -136 9z"/>
<path d="M4585 6647 c-29 -29 -35 -42 -35 -79 0 -24 7 -54 16 -67 50 -71 180
-49 203 35 19 70 -27 133 -103 141 -42 5 -48 3 -81 -30z"/>
<path d="M4959 6657 c-86 -57 -49 -197 52 -197 55 0 86 15 109 52 24 39 25 69
5 108 -31 59 -107 76 -166 37z"/>
<path d="M3949 5281 c-41 -42 -41 -101 1 -142 l29 -30 335 3 c313 3 335 4 355
22 47 43 43 119 -9 156 -27 19 -44 20 -355 20 l-327 0 -29 -29z"/>
<path d="M2534 4926 c-40 -40 -45 -83 -15 -132 22 -35 78 -60 116 -50 39 10
84 54 91 90 12 68 -41 126 -114 126 -37 0 -50 -6 -78 -34z"/>
<path d="M3978 4504 c-55 -29 -65 -102 -22 -153 l26 -31 257 0 258 0 22 24
c12 13 25 42 28 65 5 36 2 44 -30 76 l-35 35 -238 0 c-191 -1 -244 -4 -266
-16z"/>
<path d="M6975 4831 c-33 -14 -56 -47 -62 -89 -16 -117 123 -174 201 -81 74
88 -29 214 -139 170z"/>
<path d="M6234 4741 c-180 -46 -238 -278 -101 -398 155 -136 400 -31 400 172
0 89 -47 166 -127 207 -43 22 -125 31 -172 19z m96 -191 c24 -24 25 -43 4 -64
-18 -19 -55 -21 -72 -4 -19 19 -14 55 10 72 29 20 34 20 58 -4z"/>
<path d="M5962 4080 c-117 -71 -37 -243 93 -200 48 16 75 53 75 104 0 48 -19
80 -60 101 -39 20 -69 19 -108 -5z"/>
<path d="M7183 3664 c-59 -22 -124 -83 -158 -150 -26 -52 -30 -69 -30 -144 1
-100 21 -152 87 -218 59 -60 118 -85 197 -86 123 -1 222 50 278 142 98 164 27
388 -144 452 -64 24 -168 26 -230 4z m188 -213 c59 -59 35 -154 -46 -181 -90
-30 -172 82 -118 160 27 40 45 49 91 50 35 0 49 -6 73 -29z"/>
<path d="M5561 3386 c-78 -44 -61 -170 27 -197 72 -21 142 33 142 112 0 47
-56 99 -106 99 -22 -1 -50 -7 -63 -14z"/>
<path d="M5573 2845 c-59 -25 -80 -93 -49 -154 38 -72 153 -65 189 12 19 39 9
93 -22 121 -29 26 -83 36 -118 21z"/>
<path d="M7270 6231 c-149 -23 -227 -174 -158 -308 93 -181 379 -123 396 81 5
67 -29 151 -76 185 -25 17 -111 55 -116 50 0 -1 -21 -5 -46 -8z m55 -206 c0
-22 -31 -33 -47 -17 -17 17 -1 44 24 40 15 -2 23 -10 23 -23z"/>
</g>
</svg>
