<svg width="49" height="48" viewBox="0 0 49 48" fill="none" xmlns="http://www.w3.org/2000/svg">
<path d="M23.9711 0C37.2471 0 48.0067 10.7194 48.0105 23.9606C48.0157 27.12 47.3969 30.2494 46.1898 33.1692C44.9826 36.089 43.2107 38.7417 40.9759 40.9752C38.741 43.2087 36.0871 44.9789 33.1664 46.1844C30.2458 47.3899 27.1158 48.0069 23.9561 47.9999C10.7251 47.9999 0.00487482 37.2243 0.0105003 23.9418C0.0105003 10.7494 10.7682 0.001875 23.9711 0ZM35.207 16.4081C35.1901 14.6625 34.6051 14.1881 32.9024 14.6175C32.5695 14.6966 32.2424 14.7987 31.9236 14.9231C26.5157 17.1643 21.1109 19.4143 15.7092 21.6731C13.7853 22.4793 11.8745 23.3193 9.99002 24.2118C9.61499 24.3843 9.17246 24.8737 9.17996 25.2075C9.17996 25.5131 9.7125 25.9293 10.095 26.0812C11.1339 26.4918 12.2271 26.7656 13.2828 27.1406C15.1748 27.8118 16.823 27.4593 18.4694 26.3025C21.479 24.1893 24.5787 22.1981 27.6576 20.1862C27.9202 20.0137 28.3233 20.0587 28.6608 19.9987C28.5315 20.3193 28.4846 20.7187 28.2633 20.9475C27.1964 22.0425 26.0844 23.0962 24.9818 24.1556C23.6542 25.4325 22.3097 26.6906 20.9915 27.9787C20.5283 28.4306 20.1571 28.9968 20.5921 29.6362C20.8887 30.0362 21.2552 30.3793 21.674 30.6487C23.883 32.17 26.1025 33.6756 28.3327 35.1656C30.7141 36.7668 31.9555 36.225 32.458 33.3862C32.7993 31.4212 33.1743 29.4637 33.4893 27.495C34.0669 23.7993 34.6257 20.1019 35.207 16.4081Z" fill="white"/>
<path d="M35.207 16.408C34.6332 20.1018 34.0819 23.7993 33.4837 27.4912C33.1687 29.4599 32.7937 31.4174 32.4524 33.3824C31.9574 36.2211 30.716 36.7574 28.3271 35.1618C26.1007 33.6618 23.8811 32.1561 21.6684 30.6449C21.2496 30.3755 20.8831 30.0324 20.5865 29.6324C20.1514 28.993 20.5227 28.4268 20.9859 27.9749C22.2985 26.6868 23.6486 25.4287 24.9762 24.1518C26.0788 23.0924 27.1907 22.0387 28.2577 20.9437C28.479 20.7149 28.5258 20.3155 28.6552 19.9949C28.3177 20.0493 27.9145 19.9949 27.652 20.1824C24.5712 22.1943 21.464 24.1855 18.4638 26.2987C16.8174 27.4555 15.1692 27.808 13.2772 27.1368C12.2215 26.7618 11.1282 26.488 10.0894 26.0774C9.71439 25.9255 9.18185 25.5149 9.17435 25.2037C9.17435 24.8699 9.61688 24.3805 9.98441 24.208C11.8689 23.3155 13.7797 22.4755 15.7036 21.6693C21.1015 19.408 26.5063 17.158 31.918 14.9193C32.2368 14.7949 32.5639 14.6928 32.8968 14.6137C34.5976 14.188 35.1826 14.6624 35.207 16.408Z" fill="#181A1D"/>
</svg>
