<svg width="49" height="48" viewBox="0 0 49 48" fill="none" xmlns="http://www.w3.org/2000/svg">
<g clip-path="url(#clip0_90_575)">
<path d="M24.0498 9.83549e-07C37.2709 9.83549e-07 48.0142 10.7843 48.0104 24.0469C48.0067 37.3094 37.2259 48.015 23.8736 48C10.6863 47.985 -0.000799729 37.1819 0.0104459 23.8725C0.0235658 10.7112 10.8156 -0.00374814 24.0498 9.83549e-07ZM23.9898 34.3045H35.3254C36.6618 34.3045 36.8679 34.117 36.8698 32.8048C36.8698 26.9312 36.8698 21.0607 36.8698 15.1933C36.8698 13.9167 36.658 13.7049 35.4135 13.7049C27.8265 13.7049 20.2382 13.7049 12.6486 13.7049C11.376 13.7049 11.1492 13.9111 11.1492 15.1521C11.1492 21.0532 11.1492 26.9549 11.1492 32.8573C11.1492 34.0926 11.3741 34.2988 12.6486 34.2988C16.4309 34.3013 20.2113 34.3013 23.9898 34.2988V34.3045Z" fill="white"/>
<path d="M23.9899 34.2988C20.2114 34.2988 16.4328 34.2988 12.6543 34.2988C11.3779 34.2988 11.1549 34.0926 11.1549 32.8572C11.1549 26.9549 11.1549 21.0531 11.1549 15.152C11.1549 13.911 11.3779 13.7048 12.6543 13.7048C20.2439 13.7048 27.8321 13.7048 35.4192 13.7048C36.6637 13.7048 36.8736 13.9167 36.8755 15.1932C36.8755 21.0669 36.8755 26.9374 36.8755 32.8047C36.8755 34.1057 36.6674 34.3044 35.3311 34.3044L23.9899 34.2988ZM35.0912 16.5617C34.7988 16.781 34.602 16.9122 34.4221 17.064C31.2714 19.7653 28.1095 22.4534 24.9814 25.1828C24.2785 25.7939 23.7519 25.7995 23.0471 25.1828C19.919 22.4534 16.7571 19.7653 13.6046 17.064C13.4265 16.9103 13.2297 16.7735 12.9467 16.5542V32.5348H35.0912V16.5617ZM33.6555 15.4782H14.3712L24.0143 23.7431L33.6555 15.4782Z" fill="#181A1D"/>
<path d="M35.0912 16.5616V32.5366H12.9467V16.5466C13.2316 16.766 13.4265 16.9028 13.6046 17.0565C16.7515 19.7578 19.919 22.4459 23.0471 25.1846C23.7519 25.7995 24.2785 25.7938 24.9814 25.1846C28.1095 22.4552 31.2714 19.7671 34.4221 17.0659C34.602 16.9028 34.7988 16.7716 35.0912 16.5616Z" fill="white"/>
<path d="M33.6555 15.469L24.0143 23.7339L14.3712 15.469H33.6555Z" fill="white"/>
</g>
<defs>
<clipPath id="clip0_90_575">
<rect width="48" height="48" fill="white" transform="translate(0.010498)"/>
</clipPath>
</defs>
</svg>
