<svg width="511" height="329" viewBox="0 0 511 329" fill="none" xmlns="http://www.w3.org/2000/svg">
<path d="M76.2382 129.729L76.7534 130.76L78.2991 132.305C78.4708 132.649 79.2265 133.542 80.8752 134.366C82.9361 135.397 81.9056 134.881 81.9056 135.397C81.9056 135.809 81.2187 136.255 80.8752 136.427L79.8448 138.488L78.8143 140.549L75.2078 140.034L73.1469 140.549H72.1164L70.0555 142.095V144.155L68.5099 144.671L67.4794 146.216L65.9338 148.277V150.338L64.9033 151.884L63.3577 153.429V154.975L62.3272 156.006L61.2968 157.551L58.7207 158.066L58.2055 160.127L57.6902 161.673L55.6293 162.703L54.5989 161.673L53.5685 160.127L50.9924 159.612H49.4467L47.901 161.673L48.9315 163.219L50.4771 165.795L50.9924 168.886L50.4771 170.432V172.493L49.4467 174.038V176.099H50.9924L52.538 175.069H53.5684H56.1446L57.175 174.038L57.6902 171.977C57.862 171.462 58.2055 170.329 58.2055 169.917C58.2055 169.504 58.5489 168.371 58.7207 167.856L59.7511 168.886L60.7816 170.432L62.3272 171.977L64.3881 173.008L64.9033 171.977L64.3881 170.947L63.3577 169.401V167.856V166.31L64.9033 165.795L65.9338 165.28L67.4794 166.31L69.5403 167.34L70.5708 167.856L72.1164 168.886L73.1469 170.947L72.1164 173.008L73.1469 176.099L74.6925 177.13H76.2382L77.2686 179.19V181.767L78.2991 184.343L79.8448 186.919L78.8143 188.464L78.2991 189.495L77.2686 191.556L76.2382 194.132L75.723 193.101L73.1469 190.01L72.1164 191.556L69.5403 193.101H67.4794L65.9338 197.223V200.315H68.5099L69.5403 199.284L72.1164 200.315L73.1469 202.891V206.497L72.1164 208.558L69.5403 211.134L65.9338 212.165L64.3881 210.104L60.2663 208.558L55.6293 210.104V214.741L53.5684 217.317L53.0532 220.923L50.9923 223.5L49.4467 222.984L46.8706 221.439L45.3249 222.984L43.7793 225.045L42.2336 222.984L37.0814 221.954L33.99 218.863H31.4139L31.9292 221.954L31.4139 223.5H29.8683L29.3531 225.045L28.3226 229.167L29.3531 231.228L29.8683 234.834L27.8074 235.35L24.7161 237.411L22.6552 238.956L21.6247 241.532L22.6552 243.078L24.2008 244.108L26.7769 242.563L29.3531 241.532L29.8683 245.139L30.3835 246.684L31.4139 248.745L29.8683 249.261L28.3226 249.776V251.837V254.928L29.3531 256.989L30.3835 261.111L31.4139 264.717L33.4748 266.263V264.717C33.303 264.374 33.1657 263.172 33.99 261.111C34.5052 260.595 34.5052 260.08 34.5052 259.05C34.5052 258.225 35.5357 258.363 36.0509 258.535C36.9096 259.05 38.73 260.08 39.1422 260.08C39.5544 260.08 41.0314 261.111 41.7183 261.626H44.2944L46.3553 260.08C46.6988 259.222 47.3858 257.401 47.3858 256.989C47.3858 256.577 47.3858 254.756 47.3858 253.898C47.2141 253.382 46.9736 252.249 47.3858 251.837C47.901 251.321 48.9315 250.806 49.4467 250.291C49.8589 249.879 50.6489 249.089 50.9923 248.745C51.3358 248.23 51.8167 247.097 50.9923 246.684C50.168 246.272 50.3054 245.482 50.4771 245.139L52.0228 243.078L53.0532 241.532L52.538 239.987C52.7097 239.471 53.1562 238.441 53.5684 238.441C53.9806 238.441 55.1141 238.097 55.6293 237.926L59.2359 238.441L61.812 241.017V243.078H59.2359L58.2054 244.108V246.684L61.2968 249.261C61.9837 249.604 63.5638 250.291 64.3881 250.291C65.4186 250.291 65.9338 250.291 67.4794 250.291C68.716 250.291 68.6816 249.261 68.5099 248.745C68.1664 248.402 67.4794 247.509 67.4794 246.685C67.4794 245.654 67.4794 245.139 68.5099 244.108C69.5403 243.078 69.0251 242.563 69.5403 241.532C69.9525 240.708 71.086 240.845 71.6012 241.017C72.4599 241.704 74.2804 243.078 74.6925 243.078C75.2078 243.078 76.2382 242.563 76.7534 241.532C77.1656 240.708 77.2686 240.845 77.2686 241.017L79.8448 237.926L80.8752 239.987C81.7339 240.33 83.5543 241.017 83.9665 241.017C84.4817 241.017 84.997 239.987 86.0274 239.987C86.8518 239.987 87.0579 239.987 87.0579 239.987L88.6035 241.017C88.947 241.017 89.9431 241.017 91.1796 241.017C92.4162 241.017 91.6948 241.361 91.1796 241.532L89.634 243.078V245.139C89.634 245.139 90.6644 246.169 91.1796 246.685H92.2101C92.7253 246.513 93.7557 245.963 93.7557 245.139C93.7557 244.315 95.1297 244.108 95.8166 244.108C96.3318 244.624 97.3623 245.757 97.3623 246.169C97.3623 246.581 97.7058 247.372 97.8775 247.715L100.454 249.261L102.514 250.806C103.545 251.493 105.915 252.867 107.151 252.867C108.697 252.867 111.273 252.867 112.304 252.867C113.334 252.867 113.849 252.867 117.971 252.867C120.032 252.867 120.547 252.867 120.547 252.867H124.669C126.902 252.009 131.676 250.085 132.913 249.261C134.458 248.23 134.458 248.23 134.973 247.715C135.489 247.2 137.034 247.715 138.065 246.685C139.095 245.654 139.095 246.685 140.126 245.139C140.95 243.902 140.469 243.937 140.126 244.108C141.156 242.391 143.423 238.853 144.247 238.441C145.278 237.926 144.247 235.865 144.247 234.834C144.247 233.804 144.763 233.289 145.278 232.258C145.793 231.228 146.308 231.228 147.339 231.228C148.369 231.228 148.884 231.743 150.945 230.197C151.461 229.682 150.945 229.167 151.976 228.652C153.006 228.137 152.491 227.621 153.521 225.56C153.934 224.736 154.38 224.874 154.552 225.045H155.582C156.269 225.045 157.746 225.045 158.158 225.045C158.571 225.045 159.361 225.045 159.704 225.045C159.704 224.702 159.704 223.912 159.704 223.5C159.704 223.087 160.048 222.297 160.219 221.954L161.765 222.984C162.28 223.5 163.414 224.633 163.826 225.045C164.238 225.457 164.685 226.247 164.856 226.591L168.463 229.167L173.1 234.834C173.1 235.521 173.1 236.998 173.1 237.411C173.1 237.926 174.13 238.956 175.676 239.987C177.222 241.017 175.161 241.017 174.13 242.563C173.1 244.108 175.161 244.108 177.737 246.685C179.282 248.23 178.252 248.23 178.252 249.261C178.252 250.291 178.252 250.806 178.252 251.322C178.252 251.734 178.252 252.524 178.252 252.867C178.596 253.382 179.489 254.516 180.313 254.928C181.137 255.34 181 256.474 180.828 256.989V258.535C181.172 258.878 181.859 259.668 181.859 260.08C181.859 260.492 183.233 260.939 183.919 261.111C184.435 261.111 186.186 260.905 189.072 260.08C190.617 259.05 190.102 260.08 193.193 260.08C194.224 260.596 195.254 260.596 195.77 261.111C196.182 261.523 197.315 262.656 197.83 263.172C198.517 263.687 199.994 264.717 200.407 264.717C200.922 264.717 202.983 264.717 204.528 264.717C206.074 264.717 206.589 265.233 207.104 265.748C207.517 266.16 207.276 267.293 207.104 267.809C207.448 267.98 208.341 268.427 209.165 268.839C210.196 269.354 210.711 268.839 211.741 268.839C212.772 268.839 213.802 268.839 214.833 268.839C215.863 268.839 217.409 268.839 217.924 268.839C218.439 268.839 221.015 268.839 222.561 268.839C223.798 268.839 224.794 268.839 225.137 268.839C225.481 269.698 226.168 271.621 226.168 272.446C226.168 273.27 227.198 273.82 227.713 273.991L229.774 275.022C230.461 275.193 232.041 275.434 232.866 275.022C233.896 274.506 233.896 272.961 234.411 272.961C234.823 272.961 236.3 271.93 236.987 271.415L239.048 272.961L241.109 277.083L243.17 278.113L244.2 279.143L245.231 280.689L246.261 282.75V285.326V286.872V288.933L247.807 289.963H248.837C249.353 289.62 250.486 288.933 250.898 288.933C251.413 288.933 251.929 288.417 252.959 286.872C253.99 285.326 253.474 286.357 255.535 284.296C256.05 283.265 256.566 284.296 257.596 283.78C258.627 283.265 258.627 282.75 259.142 281.72C259.554 280.895 260.344 280.689 260.687 280.689L262.233 281.72L263.779 282.75L264.809 284.296L267.385 286.357H268.931C269.275 286.013 270.065 285.326 270.477 285.326C270.889 285.326 272.022 284.296 272.538 283.78L273.568 284.296L274.598 286.872H276.659C277.175 286.7 278.205 286.15 278.205 285.326C278.205 284.296 278.205 283.78 278.205 282.75C278.205 281.926 278.892 282.407 279.235 282.75C279.751 282.063 280.781 280.483 280.781 279.659C280.781 278.834 280.781 277.254 280.781 276.567C280.781 276.224 280.987 275.331 281.812 274.507C282.842 273.476 282.327 273.476 282.327 272.961C282.327 272.549 282.327 272.102 282.327 271.93L281.812 270.385C281.64 269.698 281.399 268.015 281.812 266.778C282.327 265.233 281.812 265.748 282.327 264.717C282.842 263.687 283.357 264.202 283.872 263.172C284.388 262.141 284.903 263.172 285.933 262.656C286.964 262.141 286.964 262.656 289.025 258.019C289.54 256.474 289.54 256.989 290.055 256.474C290.57 255.959 290.57 255.443 292.631 253.382C293.662 252.352 293.146 252.352 293.662 251.322C294.074 250.497 294.52 249.948 294.692 249.776L297.268 250.291C298.299 250.463 300.772 250.703 302.42 250.291C304.481 249.776 303.451 250.291 306.542 248.745C307.573 248.23 307.573 247.2 308.603 247.2C309.634 247.2 309.634 247.715 309.634 251.322C309.634 252.352 309.634 253.382 309.118 254.413C308.603 255.443 309.118 255.443 309.634 256.474C310.046 257.298 310.492 257.848 310.664 258.019C311.007 258.019 311.797 258.019 312.21 258.019C312.725 258.019 313.755 258.019 315.301 256.989C316.847 255.959 316.847 256.989 317.362 256.989C317.877 256.989 318.392 256.474 318.392 255.443C318.392 254.619 318.392 254.756 318.392 254.928L318.907 251.322C319.423 251.665 320.659 252.558 321.484 253.382C322.308 254.207 322.514 255.1 322.514 255.443C323.201 255.959 324.678 257.195 325.09 258.019C325.502 258.844 325.949 259.393 326.121 259.565L327.666 260.596H331.273C331.788 260.767 332.922 261.214 333.334 261.626C333.746 262.038 334.536 262.485 334.879 262.656C335.395 262.656 336.631 262.656 337.455 262.656C338.486 262.656 339.001 263.687 339.516 264.202C339.929 264.614 340.719 264.717 341.062 264.717H342.608H345.184L346.214 265.748C346.386 266.263 346.936 267.499 347.76 268.324C348.79 269.354 347.76 269.354 347.76 270.385C347.76 271.415 347.76 271.415 346.729 274.507C346.214 276.052 346.214 275.537 346.214 277.083C346.214 278.319 346.214 278.285 346.214 278.113H347.76C348.103 278.457 349.203 278.937 350.851 278.113C351.882 277.083 352.397 278.113 352.912 278.113C353.427 278.113 354.973 278.113 355.488 279.143C355.9 279.968 355.316 279.83 354.973 279.659C355.145 280.002 355.385 280.689 354.973 280.689C354.458 280.689 354.973 282.235 354.973 283.265C354.973 284.296 354.458 284.811 354.973 285.841C355.385 286.666 355.488 286.872 355.488 286.872L356.519 287.902C356.862 288.246 357.755 288.933 358.58 288.933C359.61 288.933 359.61 287.902 359.61 283.265C360.022 282.029 360.125 282.063 360.125 282.235C360.64 283.265 362.083 285.223 363.732 284.811C364.762 284.296 364.762 282.75 365.793 282.235C366.823 281.72 365.793 281.204 365.793 280.689C365.793 280.174 365.793 279.144 365.793 278.113C365.793 277.083 365.793 277.083 368.369 275.537C369.914 275.537 369.399 275.537 370.43 275.537C371.254 275.537 371.804 275.193 371.975 275.022H373.006L375.582 277.083C376.269 277.77 377.849 279.143 378.673 279.143C379.704 279.143 378.673 277.598 378.673 277.083C378.673 276.567 378.673 275.022 378.673 274.507C378.673 273.991 379.188 273.476 379.704 272.961C380.116 272.549 381.249 271.759 381.765 271.415C382.28 271.587 383.722 272.033 385.371 272.446C387.432 272.961 385.886 273.476 385.886 274.507C385.886 275.537 386.402 276.052 386.402 277.083C386.402 278.113 386.917 278.113 387.432 279.143C387.844 279.968 387.604 280.517 387.432 280.689L386.402 282.235L387.947 282.75C388.291 283.265 388.978 284.399 388.978 284.811C388.978 285.223 389.665 286.013 390.008 286.357C390.523 286.528 391.657 286.872 392.069 286.872C392.584 286.872 393.099 286.357 393.615 285.326C394.027 284.502 394.817 284.983 395.16 285.326V286.357L397.221 286.872L398.767 286.357L400.828 285.326C401.171 285.67 401.961 286.357 402.373 286.357C402.889 286.357 404.434 286.357 404.949 286.872C405.362 287.284 406.495 287.731 407.01 287.902L409.071 288.933L410.102 289.963C410.96 290.307 412.781 290.994 413.193 290.994C413.605 290.994 414.052 290.307 414.223 289.963H416.284C416.456 290.135 416.903 290.581 417.315 290.994C417.727 291.406 417.487 291.852 417.315 292.024C417.143 292.367 416.697 293.157 416.284 293.57C415.872 293.982 416.113 294.772 416.284 295.115H417.315H418.345C418.689 295.459 419.788 295.94 421.437 295.115C421.849 294.703 421.952 294.6 421.952 294.6L422.982 293.57C423.326 293.57 424.013 293.261 424.013 292.024C424.013 291.509 424.013 290.994 424.013 289.963V288.933L425.558 288.417H427.104V288.933H428.134L429.165 289.963C429.337 290.307 429.886 290.994 430.711 290.994C431.741 290.994 431.226 291.509 432.256 292.539C433.287 293.57 433.287 293.57 431.741 294.6C431.226 295.115 431.226 297.176 430.711 298.207C430.298 299.031 429.852 298.894 429.68 298.722C429.165 298.894 427.928 299.134 427.104 298.722C426.074 298.207 425.043 298.722 426.074 299.752C427.104 300.783 426.074 301.298 425.558 301.298C425.146 301.298 424.356 301.298 424.013 301.298L421.952 300.783H420.406L418.345 301.298L419.376 302.844C419.547 303.359 419.891 304.492 419.891 304.905C419.891 305.42 420.921 306.45 420.921 306.965C420.921 307.378 421.608 307.481 421.952 307.481L424.013 307.996L425.558 310.057L426.074 312.118L427.104 313.148L429.165 314.179C429.165 314.694 429.165 315.827 429.165 316.239C429.165 316.755 429.68 317.27 429.68 318.816C429.68 320.361 430.711 319.331 432.256 318.816C433.802 318.3 433.287 318.816 435.863 317.27C436.378 316.239 436.893 315.724 437.408 315.724C437.821 315.724 438.954 315.724 439.469 315.724V317.27H441.015C441.53 317.613 442.561 318.403 442.561 318.816C442.561 319.331 443.076 320.361 443.591 320.876C444.106 321.392 443.076 322.422 443.591 323.453C444.106 324.483 443.591 324.483 444.622 324.483C445.652 324.483 445.137 325.513 446.682 326.544C448.228 327.574 447.713 327.059 447.713 327.574C447.713 327.986 448.743 328.09 449.259 328.09C449.945 327.918 451.526 327.162 452.35 325.513C452.762 324.689 453.209 323.796 453.38 323.453L454.411 321.907C455.098 321.563 456.575 320.464 456.987 318.816C456.472 318.3 456.472 317.785 456.472 317.27C456.472 316.858 457.159 315.037 457.502 314.179C457.159 313.663 456.266 311.602 455.441 307.481C454.411 305.935 454.926 305.935 454.411 304.389C453.896 302.844 453.38 303.359 453.38 301.298C453.38 299.237 453.38 299.752 453.38 299.237C453.38 298.825 453.38 297.005 453.38 296.146C453.037 295.459 452.556 293.467 453.38 290.994C453.38 289.448 453.38 289.963 453.38 288.417C453.38 286.872 452.35 287.387 452.35 286.357C452.35 285.532 451.319 285.326 450.804 285.326C450.804 284.983 450.804 283.987 450.804 282.75C450.804 281.204 450.804 281.72 450.804 280.689C450.804 279.659 450.804 279.144 450.804 277.598C450.804 276.052 452.35 277.083 453.38 276.052C454.205 275.228 453.037 274.678 452.35 274.507V272.961C452.693 272.274 453.38 270.694 453.38 269.87C453.38 268.839 452.35 268.839 452.35 267.293C452.35 265.748 452.35 265.748 453.38 263.172C454.411 262.141 453.38 260.595 454.411 259.05C455.441 257.504 455.441 258.535 456.472 255.959C456.472 254.722 457.159 254.413 457.502 254.413L459.048 253.382C459.906 252.352 462.242 249.57 464.715 246.685C465.746 245.654 465.746 245.654 466.261 243.078C466.261 242.048 466.776 242.048 466.776 240.502C466.776 238.956 467.806 238.956 467.806 236.38C467.806 235.35 466.776 235.35 466.776 229.682C466.776 228.446 466.433 228.48 466.261 228.652L465.746 228.137C465.746 227.793 465.746 227.003 465.746 226.591C465.746 226.179 465.746 225.389 465.746 225.045C466.261 223.5 467.394 220.202 467.806 219.378C468.322 218.347 468.322 217.832 468.322 216.802C468.322 215.771 467.291 215.771 466.776 215.771C466.261 215.771 465.23 216.802 464.715 217.832C464.303 218.656 463.169 218.863 462.654 218.863C461.967 218.691 460.284 218.038 459.048 216.802C457.502 215.256 458.533 215.256 457.502 214.226C456.472 213.195 456.987 213.195 456.472 212.165C455.956 211.134 455.956 211.134 455.441 210.619C454.926 210.104 454.926 209.589 453.38 208.043C451.835 206.497 453.38 207.012 452.35 205.982C451.319 204.952 451.319 205.467 450.289 204.952C449.259 204.436 447.198 204.436 446.682 203.406C446.682 202.994 445.652 202.204 445.137 201.86L443.076 200.83L442.561 198.254V195.678C442.217 195.506 441.427 194.956 441.015 194.132C440.5 193.102 439.985 193.617 439.469 194.132C438.954 194.647 437.924 193.617 436.893 193.617C436.069 193.617 435.863 192.93 435.863 192.586C435.519 192.243 434.935 191.144 435.348 189.495C435.76 189.083 435.863 188.293 435.863 187.949C436.378 187.949 437.511 187.846 437.924 187.434C438.336 187.022 439.469 186.575 439.985 186.404H443.076H443.591C443.935 186.404 444.725 186.198 445.137 185.373C445.652 184.343 446.682 185.373 447.198 185.373C447.713 185.373 447.713 184.343 448.228 183.828C448.64 183.415 449.774 183.312 450.289 183.312V182.282C449.774 181.938 449.052 180.942 450.289 179.706C451.835 178.16 451.835 179.191 453.38 178.675C454.926 178.16 454.926 178.675 455.441 178.675C455.956 178.675 458.017 179.706 459.048 179.706C460.078 179.706 461.109 179.706 461.624 179.706C462.036 179.706 462.826 179.706 463.17 179.706L466.776 179.191C466.948 179.019 467.291 177.851 467.291 174.554C467.703 173.729 468.15 173.523 468.322 173.523C468.837 173.351 469.97 172.905 470.383 172.493C470.898 171.977 471.413 170.947 471.413 169.917C471.413 168.886 470.898 168.371 471.413 166.825C471.928 165.28 472.444 165.795 473.474 165.28C474.504 164.764 475.02 165.28 476.565 164.764C478.111 164.249 478.111 164.249 478.111 163.734C478.111 163.219 479.657 162.703 480.172 161.673C480.687 160.643 484.294 161.158 485.324 159.612C485.324 159.2 485.324 158.066 485.324 157.551V155.49L487.9 152.399L489.446 150.338C489.961 149.995 491.198 149.102 492.022 148.277C493.052 147.247 492.022 147.247 490.991 146.216C489.961 145.186 490.991 145.186 492.022 140.549C493.052 139.518 492.537 139.518 493.568 139.003C494.598 138.488 494.598 138.488 495.113 137.973C495.628 137.458 495.113 136.942 495.628 136.427C496.144 135.912 497.174 135.912 497.689 135.397C498.205 134.881 499.235 134.881 499.235 134.366C499.235 133.954 500.265 133.164 500.781 132.821L505.418 128.699C505.761 128.184 506.86 126.226 508.509 122.516C508.509 122.104 509.196 121.657 509.539 121.486C510.055 120.627 510.776 118.394 509.539 116.334C509.539 115.303 507.479 116.849 505.418 116.334C504.387 115.818 504.387 116.334 503.357 115.303C502.326 114.273 502.842 114.273 501.296 112.212C500.265 111.697 500.265 111.697 499.235 111.181C498.205 110.666 498.205 110.151 497.689 109.636C497.277 109.223 497.174 108.433 497.174 108.09L495.113 107.575L493.568 108.09L490.991 110.151L489.961 109.12L489.446 106.029C488.931 105.17 487.797 103.35 487.385 102.938C486.87 102.423 485.324 101.907 484.809 101.392C484.294 100.877 483.778 100.362 482.748 99.8464C481.717 99.3312 482.233 98.816 481.718 98.3008C481.202 97.7856 480.172 97.2703 479.657 97.2703C479.141 97.2703 478.626 96.2399 478.111 95.7247C477.699 95.3125 477.252 95.2094 477.08 95.2094H474.504C473.989 95.5529 472.959 96.1368 472.959 95.7247C472.959 95.3125 472.615 95.2094 472.443 95.2094C471.757 94.866 470.073 94.179 468.837 94.179C467.6 94.179 467.635 94.179 467.806 94.179C467.12 94.179 465.436 94.179 464.2 94.179C462.654 94.179 461.624 94.179 461.109 94.179C460.696 94.179 459.906 94.866 459.563 95.2094L458.533 96.2399L455.441 97.2703C454.754 97.2703 453.174 97.2703 452.35 97.2703C451.319 97.2703 451.319 96.7551 450.289 96.7551C449.259 96.7551 448.743 96.7551 448.228 96.7551C447.713 96.7551 446.167 96.2399 442.045 96.2399C441.221 96.2399 441.015 96.2399 441.015 96.2399C440.671 96.2399 439.778 96.0338 438.954 95.2094C438.954 94.6942 439.985 93.6638 439.985 93.1486C439.985 92.6333 442.045 92.1181 447.198 86.4507C448.228 85.9355 448.228 85.9355 449.259 84.905C450.289 83.8746 450.289 84.3898 450.289 83.8746C450.289 83.3594 452.35 83.3594 453.38 82.3289C454.411 81.2985 454.411 81.8137 455.956 79.7528C456.369 78.9284 456.472 78.7224 456.472 78.7224L454.411 78.2071C454.067 77.8637 453.38 77.0736 453.38 76.6615C453.38 76.2493 453.38 75.4593 453.38 75.1158L454.411 73.0549C454.411 72.8832 454.617 72.4367 455.441 72.0245C456.472 71.5093 455.956 71.5093 456.472 70.4788C456.987 69.4484 456.987 69.9636 456.987 68.9332C456.987 68.1088 457.674 67.2157 458.017 66.8723L458.533 67.9027C459.563 68.2462 461.83 68.0058 462.654 64.2962C463.169 63.2657 463.17 63.2657 461.624 59.1439C461.624 58.1135 462.139 58.1135 462.139 57.5983C462.139 57.0831 462.654 56.0526 463.17 55.5374C463.685 55.0222 462.654 53.9917 462.139 53.4765C461.624 52.9613 460.593 53.4765 460.078 53.4765C459.666 53.4765 457.846 53.82 456.987 53.9917C456.643 53.82 455.956 53.3735 455.956 52.9613C455.956 52.4461 454.926 51.9308 454.411 51.4156C453.999 51.0034 452.865 50.2134 452.35 49.87H451.319L450.289 50.9004L449.259 51.9308H446.167H445.137H444.106C443.419 51.9308 441.839 51.9308 441.015 51.9308C440.191 51.9308 439.298 52.9613 438.954 53.4765C439.298 53.9917 439.985 55.1252 439.985 55.5374C439.985 55.9496 441.358 56.3961 442.045 56.5678C442.389 56.9113 443.282 57.7013 444.106 58.1135C445.137 58.6287 444.622 59.1439 445.137 60.1744C445.652 61.2048 445.652 61.2048 446.167 62.2353C446.579 63.0596 446.339 63.2657 446.167 63.2657C446.167 63.9527 446.373 65.4296 447.198 65.8418C448.022 66.254 446.854 68.0745 446.167 68.9332L447.198 69.9636L447.713 74.0854L446.167 74.6006C445.652 74.7723 444.519 75.0128 444.106 74.6006C443.694 74.1884 443.248 74.0854 443.076 74.0854L441.53 72.5397L441.015 71.5093H439.985H438.439L435.863 70.994V69.9636C435.519 69.6201 434.832 68.7271 434.832 67.9027C434.832 67.0784 434.145 67.2157 433.802 67.3875L431.226 66.8723H429.68L428.65 67.9027C428.306 67.3875 427.619 66.151 427.619 65.3266C427.619 64.2962 427.104 63.7809 427.104 63.2657C427.104 62.7505 427.104 61.2048 426.589 60.1744C426.177 59.35 425.73 58.8005 425.558 58.6287H425.043L423.497 58.1135C423.326 57.9418 422.57 56.4648 420.921 51.9308C420.921 50.3852 420.921 49.87 419.891 48.8395C418.86 47.8091 419.891 47.2939 419.891 46.7786C419.891 46.2634 420.406 45.7482 420.921 44.7177C421.334 43.8934 421.093 43.6873 420.921 43.6873C420.75 43.3438 420.406 42.5538 420.406 42.1416C420.406 41.7295 420.406 41.2829 420.406 41.1112L420.921 40.0808C420.921 39.7373 421.334 38.329 422.982 35.4438C423.497 34.4133 422.982 34.4133 422.982 31.8372C422.982 31.0129 423.326 30.4633 423.497 30.2915V29.2611L425.043 28.7459L426.589 27.7154L428.134 27.2002H429.165V25.6546C429.508 25.3111 430.195 24.2119 430.195 22.5632C430.195 22.048 429.165 21.0176 429.165 19.9871C429.165 19.1628 429.165 18.9567 429.165 18.9567H427.104L425.043 17.9262L423.497 18.9567H420.921L419.891 19.9871V21.0176L418.345 22.5632H417.315H415.769L415.254 24.1089L415.769 24.6241L417.315 25.6546L418.345 27.2002H418.86L419.891 29.2611L418.345 30.2915V31.322L417.315 33.3829C416.971 33.3829 416.181 33.3829 415.769 33.3829C415.254 33.3829 414.739 34.4133 413.708 34.4133C412.678 34.4133 412.163 35.4438 410.102 34.9285C409.277 34.5164 408.728 34.4133 408.556 34.4133C408.213 34.5851 407.319 35.0316 406.495 35.4438C405.671 35.8559 404.778 36.3025 404.434 36.4742C404.434 36.9894 404.434 38.432 404.434 40.0808C404.434 41.1112 404.434 41.1112 402.889 41.6264C401.343 42.1416 401.858 42.6569 401.858 43.6873C401.858 44.5117 401.171 44.7177 400.828 44.7177C400.484 44.8895 399.591 45.336 398.767 45.7482C397.736 46.2634 398.767 46.7786 398.767 47.2939C398.767 47.706 398.767 48.496 398.767 48.8395L397.221 49.87L396.706 48.8395H395.16C395.16 49.3547 394.954 50.4882 394.13 50.9004C393.099 51.4156 393.615 52.4461 393.099 53.4765C392.584 54.507 392.584 55.5374 393.099 56.0526C393.512 56.4648 393.958 57.2548 394.13 57.5983C394.817 57.5983 396.397 57.7013 397.221 58.1135C398.252 58.6287 400.828 57.5983 401.858 58.1135C402.889 58.6287 403.919 58.6287 404.434 58.6287C404.95 58.6287 405.465 59.1439 406.495 59.1439C407.526 59.1439 407.526 59.6592 408.556 60.1744C409.38 60.5866 410.273 60.6896 410.617 60.6896L411.132 62.2353C411.476 63.094 412.369 64.8114 413.193 64.8114C414.017 64.8114 413.537 65.4983 413.193 65.8418L412.163 67.3875C411.991 67.731 411.544 68.521 411.132 68.9332C410.72 69.3453 411.304 69.7919 411.647 69.9636L413.708 70.994L413.193 72.0245C412.85 72.7114 412.06 74.0854 411.647 74.0854C411.132 74.0854 410.102 74.0854 409.071 73.0549C408.041 72.0245 408.041 72.5397 407.526 71.5093C407.01 70.4788 405.465 69.4484 404.434 69.4484C403.404 69.4484 402.889 68.9332 402.889 69.4484C402.889 69.9636 402.889 70.4788 402.889 71.5093C402.889 72.5397 404.434 73.0549 404.434 74.0854C404.434 75.1158 404.434 75.631 404.434 76.1462C404.434 76.6615 404.434 78.2071 404.434 78.7224C404.434 79.2376 404.434 80.268 404.434 80.7832C404.434 81.1954 403.404 81.9854 402.889 82.3289L398.767 81.8137C398.423 81.8137 397.324 81.6076 395.676 80.7832C393.615 79.7528 394.645 80.7832 393.615 79.7528C392.584 78.7224 392.069 78.7224 391.038 78.2071C390.008 77.6919 390.008 77.1767 389.493 76.1462C388.978 75.1158 387.947 76.1462 386.917 76.1462C386.092 76.1462 384.856 76.1462 384.341 76.1462L384.856 77.1767C385.371 77.5202 386.608 78.3102 387.432 78.7224C388.462 79.2376 387.947 79.7528 387.432 80.7832C386.917 81.8137 385.886 81.8137 384.856 80.7832C383.825 79.7528 383.825 79.7528 382.795 79.7528C381.765 79.7528 381.765 79.7528 380.734 80.268C379.704 80.7832 379.704 80.7832 377.128 77.1767C376.715 75.9402 375.925 75.9745 375.582 76.1462L374.551 75.631C374.036 75.4593 372.8 74.9097 371.975 74.0854C371.151 73.261 369.914 73.0549 369.399 73.0549C369.056 73.7419 368.266 75.2189 367.854 75.631C367.338 76.1463 368.369 77.6919 368.369 78.7224C368.369 79.5467 369.056 80.0963 369.399 80.268L368.884 81.8137C368.54 82.1572 367.75 83.0502 367.338 83.8746C366.926 84.6989 367.167 85.592 367.338 85.9355C367.854 86.1072 368.884 86.6568 368.884 87.4811C368.884 88.3055 369.914 88.855 370.43 89.0268L368.884 90.0572L368.369 90.5724L365.277 92.1181L364.247 94.179C363.388 94.6942 361.568 95.7247 361.156 95.7247C360.64 95.7247 359.095 96.7551 358.064 95.7247C357.034 94.6942 357.549 95.2094 357.549 94.179C357.549 93.1486 356.519 93.1486 356.519 92.1181C356.519 91.0877 356.519 91.0877 356.519 90.0572C356.519 89.0268 355.488 88.5116 354.973 87.9963C354.458 87.4811 353.943 87.4811 352.912 86.4507C351.882 85.4202 350.336 85.4202 349.306 87.4811C349.306 89.0268 349.306 89.0268 348.79 90.0572C348.275 91.0877 347.245 90.5725 346.729 91.0877C346.317 91.4999 345.527 91.6029 345.184 91.6029H342.608H341.062L339.001 94.179L337.455 96.7551C337.112 96.5834 336.116 95.3125 334.879 91.6029C333.849 90.5725 333.849 91.6029 333.334 91.0877C332.818 90.5725 332.303 90.5724 331.273 90.0572C330.242 89.542 329.727 89.542 329.212 89.0268C328.697 88.5116 327.666 88.5116 326.636 89.0268C325.605 89.542 325.09 89.542 323.545 88.5116C322.72 88.0994 321.827 87.9963 321.484 87.9963L320.968 89.0268C320.11 89.0268 318.289 89.0268 317.877 89.0268C317.362 89.0268 316.331 89.542 315.301 90.0572C314.477 90.4694 313.927 90.5724 313.755 90.5724C313.24 90.4007 312.004 88.7177 311.179 83.3594C311.179 81.8137 311.179 81.8137 311.694 80.7832C312.21 79.7528 313.24 80.268 313.755 79.7528C314.271 79.2376 315.301 79.2376 315.301 78.7224C315.301 78.2071 316.331 77.6919 316.847 77.1767C317.362 76.6615 317.877 76.1463 318.392 75.1158C318.908 74.0854 319.423 74.0854 320.968 74.0854C322.514 74.0854 321.999 73.0549 324.575 72.5397C325.605 72.0245 326.121 71.5093 326.121 70.994C326.121 70.5819 326.121 70.1353 326.121 69.9636C325.777 69.6201 324.987 68.9332 324.575 68.9332C324.163 68.9332 323.373 67.5592 323.029 66.8723L320.968 67.9027C321.14 68.2462 320.865 68.9332 318.392 68.9332C315.301 68.9332 317.362 68.9332 315.301 68.9332C313.24 68.9332 312.21 68.9331 311.694 69.9636C311.179 70.994 309.634 70.994 309.118 71.5093C308.706 71.9214 307.916 72.7114 307.573 73.0549L306.027 74.0854C305.168 74.0854 303.245 74.0854 302.42 74.0854C301.596 74.0854 301.046 74.0854 300.875 74.0854C300.531 73.9136 299.638 73.4671 298.814 73.0549C297.99 72.6427 297.44 72.5397 297.268 72.5397V70.994L295.723 68.9332H292.631C292.116 68.9332 290.879 68.7271 290.055 67.9027C289.025 66.8723 288.509 68.9332 287.994 68.9332C287.582 68.9332 287.136 69.6201 286.964 69.9636C286.62 69.7919 285.83 69.3453 285.418 68.9332C285.006 68.521 285.246 68.0745 285.418 67.9027C285.075 67.731 284.285 67.2844 283.872 66.8723C283.357 66.357 282.842 66.8723 281.296 64.2962C281.296 63.2657 281.296 63.2657 281.296 62.2353C281.296 61.2048 281.296 61.2048 281.296 60.1744C281.296 59.35 280.266 59.8309 279.751 60.1744H277.69H276.144C275.285 60.1744 273.465 59.5561 273.053 57.0831C272.641 56.6709 272.194 56.2244 272.022 56.0526C272.022 55.7091 272.228 54.61 273.053 52.9613C274.083 52.4461 273.568 51.4156 274.598 50.9004C275.629 50.3852 275.629 50.3852 276.144 49.87C276.556 49.4578 276.659 47.6373 276.659 46.7786C276.316 46.6069 275.526 46.1604 275.114 45.7482C274.598 45.233 274.598 44.7177 273.053 43.6873C271.507 42.6569 272.022 42.6569 274.598 39.5655C275.629 38.5351 274.083 38.0199 273.568 38.0199C273.053 38.0199 271.507 36.9894 270.992 35.959C270.477 34.9285 269.446 34.4133 268.416 33.8981C267.591 33.4859 266.011 33.3829 265.324 33.3829C265.496 34.2416 265.943 36.1651 266.355 36.9894C266.87 38.0199 268.931 39.5655 269.446 41.1112C269.858 42.3477 268.588 42.6569 267.901 42.6569C267.385 43.0003 266.252 43.8934 265.84 44.7177C265.428 45.5421 264.638 45.4047 264.294 45.233L262.233 43.6873H259.657C259.142 43.6873 258.008 43.6873 257.596 43.6873C257.184 43.6873 256.737 42.3134 256.566 41.6264C256.222 41.6264 255.329 41.2142 254.505 39.5655C254.505 38.7412 255.192 38.1916 255.535 38.0199C256.222 37.1612 257.493 35.2377 257.081 34.4133C256.669 33.589 256.566 33.3829 256.566 33.3829L254.505 34.4133C253.474 34.4133 251.207 34.0011 250.383 32.3524C249.868 31.322 249.868 31.322 249.868 30.2915C249.868 29.2611 248.837 29.2611 247.807 28.2306C246.777 27.2002 247.807 27.2002 249.868 23.5937C250.898 22.5632 249.868 22.5632 247.807 19.4719C246.983 18.6475 247.463 18.7849 247.807 18.9567C247.463 18.9567 246.673 18.7506 246.261 17.9262C245.849 17.1018 245.403 17.2393 245.231 17.411C245.059 16.5523 245.025 13.8045 246.261 9.68271C245.849 9.27055 245.059 9.51098 244.716 9.68271L243.685 11.2283V12.2588C243.342 12.4305 242.655 12.2588 242.655 10.1979C243.479 9.78573 242.998 8.65226 242.655 8.13705C242.655 8.13705 240.903 7.00354 240.079 6.59136C239.048 6.07614 239.563 5.56094 239.563 4.5305C239.563 3.50005 239.048 3.50003 238.533 2.46959C238.018 1.43915 238.018 1.43915 236.472 1.43915C235.236 1.43915 234.583 1.43915 234.411 1.43915C234.583 1.61089 234.823 2.46959 234.411 4.5305C233.896 5.56096 233.381 5.56094 232.35 5.56094C231.32 5.56094 230.805 5.56094 229.774 4.5305C228.744 3.50005 228.229 4.01527 225.652 4.5305C224.622 5.04572 225.652 5.56094 224.622 5.56094C223.592 5.56094 224.622 6.59138 224.622 8.13705C224.622 9.68271 224.107 9.16746 223.592 9.68271C223.076 10.198 222.561 10.1979 221.531 10.1979C220.5 10.1979 220.5 9.68268 219.985 9.16746C219.573 8.75528 218.783 8.99572 218.439 9.16746L217.409 10.1979L218.439 10.7131L219.985 11.2283H221.531C222.389 11.2283 224.21 11.1253 224.622 10.7131C225.137 10.1979 225.652 11.2283 225.652 12.2588C225.652 13.2892 226.683 13.2892 226.683 13.8045C226.683 14.3197 227.198 14.8349 226.683 15.8653C226.168 16.8958 226.168 17.411 225.652 17.9262C225.137 18.4414 224.622 19.4719 224.107 19.4719C223.592 19.4719 222.561 20.5023 221.531 20.5023C220.706 20.5023 220.157 20.5023 219.985 20.5023L218.439 22.5632L216.894 24.1089C216.722 24.4524 216.378 25.3454 216.378 26.1698C216.378 26.9941 215.005 27.2002 214.318 27.2002L213.287 28.7459L211.226 29.7763H209.681C209.337 29.2611 209.371 27.5093 212.257 24.6241C212.257 23.7997 210.883 23.5936 210.196 23.5937L208.65 24.6241H207.104V26.1698L206.074 28.2306L204.528 29.7763L204.013 30.8068H201.952L201.437 30.2915L199.376 29.2611L198.346 28.2306C198.002 28.0589 197.212 27.6124 196.8 27.2002C196.285 26.685 196.8 26.1697 199.891 23.5937C201.437 22.5632 199.891 22.5632 200.407 22.048C200.922 21.5328 199.891 21.0176 199.891 20.5023C199.891 19.9871 198.861 19.4719 198.346 17.9262C197.934 16.6897 197.144 17.411 196.8 17.9262C196.457 18.0979 195.667 18.5445 195.254 18.9567C194.842 19.3688 193.365 19.4719 192.678 19.4719C192.335 19.4719 191.545 19.4719 191.133 19.4719C190.617 19.4719 189.072 19.4719 188.556 19.4719C188.041 19.4719 185.98 21.0175 183.919 22.5632C183.919 23.5936 183.919 23.5936 183.919 24.6241C183.919 25.6545 183.919 25.6545 183.404 26.1698C182.889 26.685 182.374 27.2002 181.859 28.2306C181.343 29.2611 181.859 29.7763 181.343 30.2915C180.931 30.7037 180.141 31.1502 179.798 31.322C179.283 31.1502 178.149 30.7037 177.737 30.2915C177.325 29.8794 176.535 30.1198 176.191 30.2915L175.161 28.7459C174.645 28.5741 173.306 28.6428 172.069 30.2915C172.069 31.322 171.554 31.322 171.554 33.3829C171.554 35.4438 172.069 34.9285 172.069 35.959C172.069 36.9894 171.554 36.9894 171.554 37.5046C171.554 38.0199 171.554 39.5655 171.039 40.5959C170.524 41.6264 170.009 40.5959 169.493 39.5655C169.081 38.7412 167.948 39.2221 167.432 39.5655L166.917 40.5959V41.6264C166.574 41.9699 165.578 42.4507 164.341 41.6264C163.826 41.6264 163.311 41.1112 162.28 40.5959C161.25 40.0807 161.765 39.5655 159.704 36.9894C158.674 35.959 158.674 35.959 157.643 35.4437C156.613 34.9285 156.098 36.4742 155.582 36.9894C155.067 37.5046 155.067 38.0198 153.006 38.0198C151.976 37.5046 151.461 38.0198 150.945 39.0503C150.43 40.0807 150.945 40.0807 149.4 40.5959C148.987 40.5959 148.541 40.5959 148.369 40.5959C148.026 40.9394 147.339 41.8325 147.339 42.6568C147.339 43.6873 146.308 43.6873 146.308 44.2025C146.308 44.7177 146.308 46.2634 146.308 46.7786C146.308 47.1908 145.621 47.6373 145.278 47.809C144.763 47.809 143.526 47.9121 142.702 48.3243C141.671 48.8395 141.156 49.3547 141.156 50.3851C141.156 51.4156 140.126 51.4156 139.61 51.9308C139.095 52.446 139.61 53.9917 139.61 54.5069C139.61 54.9191 139.61 55.3656 139.61 55.5374H141.156C141.5 55.5374 142.29 55.5374 142.702 55.5374C143.217 55.5374 143.732 55.5374 144.763 55.0221C145.587 54.61 146.137 55.1939 146.308 55.5374L147.339 57.083C147.339 57.77 147.236 59.1439 146.824 59.1439C146.308 59.1439 145.793 60.1743 145.278 59.1439C144.763 58.1135 144.247 59.1439 143.732 59.1439C143.32 59.1439 142.874 59.1439 142.702 59.1439L142.187 60.1743L141.156 62.2352L140.126 63.2657L139.61 64.2961V66.8722H138.065C137.55 66.8722 136.416 66.8722 136.004 66.8722C135.592 66.8722 134.802 67.5592 134.458 67.9027L133.428 69.9635L131.882 70.994C131.882 71.3375 131.882 72.1275 131.882 72.5396C131.882 73.0549 131.882 74.0853 131.882 74.6005C131.882 75.0127 130.852 75.8027 130.336 76.1462C129.993 76.1462 129.203 76.0432 128.791 75.631C128.379 75.2188 128.276 75.8027 128.276 76.1462C127.932 76.318 127.039 76.6614 126.215 76.6614C125.39 76.6614 125.528 76.318 125.699 76.1462L125.184 75.631L124.154 74.6005L122.608 74.0853L121.578 74.6005V75.631L121.062 77.6919L120.547 78.2071L121.578 79.7528L123.123 81.2984V82.8441L121.578 83.8745V85.9354C121.749 86.2789 121.99 87.0689 121.578 87.4811C121.166 87.8933 120.719 88.6833 120.547 89.0267L119.517 90.5724C119.002 90.2289 117.868 89.4389 117.456 89.0267C116.941 88.5115 115.91 89.0267 114.88 89.0267C113.849 89.0267 113.334 89.0267 112.819 89.0267C112.407 89.0267 110.93 90.0572 110.243 90.5724C109.556 90.5724 107.976 90.5724 107.151 90.5724C106.327 90.5724 104.747 90.5724 104.06 90.5724L101.999 91.6028L99.9384 94.1789C99.5949 95.3811 98.908 97.9916 98.908 98.8159" stroke="#181A1D"/>
<path d="M73.1469 171.462L74.1773 172.493L75.723 170.432V166.825C76.41 166.482 77.8869 166.001 78.2991 166.825C78.7113 167.65 80.1882 168.886 80.8752 169.401L83.9665 170.432L86.5426 171.462L88.0883 169.401L88.6035 168.886H90.1492V165.795L92.7253 166.825L94.7862 168.886L96.3319 169.401L98.3927 168.886C98.5645 168.543 99.011 167.65 99.4232 166.825C99.8354 166.001 102.343 165.795 103.545 165.795C103.888 166.138 104.678 166.619 105.091 165.795C105.503 164.971 105.262 163.047 105.091 162.188H103.03V160.643L103.545 159.612L103.03 156.006L103.545 153.945L105.091 152.914H108.182L110.758 153.945L111.273 152.399L110.758 150.338L109.212 148.793V146.732L108.182 144.671L106.636 142.61L104.575 142.095L103.03 140.549L101.484 142.095L99.4232 143.64H97.3623L95.3014 145.186L93.7557 144.671L92.7253 143.64H91.1796V142.095V140.549H88.0883L86.5426 142.61L83.4513 143.125H81.3904L80.36 142.095L78.2991 140.549" stroke="black"/>
<path d="M78.2381 144.203C78.2381 150.32 69.3768 160.524 67.1615 160.524C64.9462 160.524 56.085 150.32 56.085 144.203C56.085 138.086 61.0441 133.127 67.1615 133.127C73.2789 133.127 78.2381 138.086 78.2381 144.203Z" fill="#181A1D"/>
<circle cx="67.2067" cy="143.887" r="5.06355" fill="white"/>
<path d="M225.358 167.895V158.215L225.95 158.807H221.79V156.695H231.502V158.807H227.342L227.918 158.215V167.895H225.358ZM237.652 167.895V166.215L237.492 165.847V162.839C237.492 162.306 237.327 161.89 236.996 161.591C236.676 161.293 236.18 161.143 235.508 161.143C235.05 161.143 234.596 161.218 234.148 161.367C233.711 161.506 233.338 161.698 233.028 161.943L232.132 160.199C232.602 159.869 233.167 159.613 233.828 159.431C234.49 159.25 235.162 159.159 235.844 159.159C237.156 159.159 238.175 159.469 238.9 160.087C239.626 160.706 239.988 161.671 239.988 162.983V167.895H237.652ZM235.028 168.023C234.356 168.023 233.78 167.911 233.3 167.687C232.82 167.453 232.452 167.138 232.196 166.743C231.94 166.349 231.812 165.906 231.812 165.415C231.812 164.903 231.935 164.455 232.18 164.071C232.436 163.687 232.836 163.389 233.38 163.175C233.924 162.951 234.634 162.839 235.508 162.839H237.796V164.295H235.78C235.194 164.295 234.788 164.391 234.564 164.583C234.351 164.775 234.244 165.015 234.244 165.303C234.244 165.623 234.367 165.879 234.612 166.071C234.868 166.253 235.215 166.343 235.652 166.343C236.068 166.343 236.442 166.247 236.772 166.055C237.103 165.853 237.343 165.559 237.492 165.175L237.876 166.327C237.695 166.882 237.364 167.303 236.884 167.591C236.404 167.879 235.786 168.023 235.028 168.023ZM243.997 167.895V160.759L244.557 161.335H241.085V159.287H249.389V161.335H245.917L246.477 160.759V167.895H243.997ZM255.871 167.895V166.215L255.711 165.847V162.839C255.711 162.306 255.546 161.89 255.215 161.591C254.895 161.293 254.399 161.143 253.727 161.143C253.268 161.143 252.815 161.218 252.367 161.367C251.93 161.506 251.556 161.698 251.247 161.943L250.351 160.199C250.82 159.869 251.386 159.613 252.047 159.431C252.708 159.25 253.38 159.159 254.063 159.159C255.375 159.159 256.394 159.469 257.119 160.087C257.844 160.706 258.207 161.671 258.207 162.983V167.895H255.871ZM253.247 168.023C252.575 168.023 251.999 167.911 251.519 167.687C251.039 167.453 250.671 167.138 250.415 166.743C250.159 166.349 250.031 165.906 250.031 165.415C250.031 164.903 250.154 164.455 250.399 164.071C250.655 163.687 251.055 163.389 251.599 163.175C252.143 162.951 252.852 162.839 253.727 162.839H256.015V164.295H253.999C253.412 164.295 253.007 164.391 252.783 164.583C252.57 164.775 252.463 165.015 252.463 165.303C252.463 165.623 252.586 165.879 252.831 166.071C253.087 166.253 253.434 166.343 253.871 166.343C254.287 166.343 254.66 166.247 254.991 166.055C255.322 165.853 255.562 165.559 255.711 165.175L256.095 166.327C255.914 166.882 255.583 167.303 255.103 167.591C254.623 167.879 254.004 168.023 253.247 168.023ZM265.447 168.023C264.722 168.023 264.087 167.863 263.543 167.543C262.999 167.223 262.573 166.738 262.263 166.087C261.965 165.426 261.815 164.594 261.815 163.591C261.815 162.578 261.959 161.746 262.247 161.095C262.535 160.445 262.951 159.959 263.495 159.639C264.039 159.319 264.69 159.159 265.447 159.159C266.258 159.159 266.983 159.346 267.623 159.719C268.274 160.082 268.786 160.594 269.159 161.255C269.543 161.917 269.735 162.695 269.735 163.591C269.735 164.498 269.543 165.282 269.159 165.943C268.786 166.605 268.274 167.117 267.623 167.479C266.983 167.842 266.258 168.023 265.447 168.023ZM260.359 170.999V159.287H262.743V161.047L262.695 163.607L262.855 166.151V170.999H260.359ZM265.015 165.975C265.431 165.975 265.799 165.879 266.119 165.687C266.45 165.495 266.711 165.223 266.903 164.871C267.106 164.509 267.207 164.082 267.207 163.591C267.207 163.09 267.106 162.663 266.903 162.311C266.711 161.959 266.45 161.687 266.119 161.495C265.799 161.303 265.431 161.207 265.015 161.207C264.599 161.207 264.226 161.303 263.895 161.495C263.565 161.687 263.303 161.959 263.111 162.311C262.919 162.663 262.823 163.09 262.823 163.591C262.823 164.082 262.919 164.509 263.111 164.871C263.303 165.223 263.565 165.495 263.895 165.687C264.226 165.879 264.599 165.975 265.015 165.975ZM275.581 168.023C274.653 168.023 273.826 167.837 273.101 167.463C272.375 167.079 271.805 166.551 271.389 165.879C270.983 165.207 270.781 164.445 270.781 163.591C270.781 162.727 270.983 161.965 271.389 161.303C271.805 160.631 272.375 160.109 273.101 159.735C273.826 159.351 274.653 159.159 275.581 159.159C276.487 159.159 277.277 159.351 277.949 159.735C278.621 160.109 279.117 160.647 279.437 161.351L277.501 162.391C277.277 161.986 276.994 161.687 276.653 161.495C276.322 161.303 275.959 161.207 275.565 161.207C275.138 161.207 274.754 161.303 274.413 161.495C274.071 161.687 273.799 161.959 273.597 162.311C273.405 162.663 273.309 163.09 273.309 163.591C273.309 164.093 273.405 164.519 273.597 164.871C273.799 165.223 274.071 165.495 274.413 165.687C274.754 165.879 275.138 165.975 275.565 165.975C275.959 165.975 276.322 165.885 276.653 165.703C276.994 165.511 277.277 165.207 277.501 164.791L279.437 165.847C279.117 166.541 278.621 167.079 277.949 167.463C277.277 167.837 276.487 168.023 275.581 168.023ZM282.778 167.895V160.759L283.338 161.335H279.866V159.287H288.17V161.335H284.698L285.258 160.759V167.895H282.778ZM294.652 167.895V166.215L294.492 165.847V162.839C294.492 162.306 294.327 161.89 293.996 161.591C293.676 161.293 293.18 161.143 292.508 161.143C292.05 161.143 291.596 161.218 291.148 161.367C290.711 161.506 290.338 161.698 290.028 161.943L289.132 160.199C289.602 159.869 290.167 159.613 290.828 159.431C291.49 159.25 292.162 159.159 292.844 159.159C294.156 159.159 295.175 159.469 295.9 160.087C296.626 160.706 296.988 161.671 296.988 162.983V167.895H294.652ZM292.028 168.023C291.356 168.023 290.78 167.911 290.3 167.687C289.82 167.453 289.452 167.138 289.196 166.743C288.94 166.349 288.812 165.906 288.812 165.415C288.812 164.903 288.935 164.455 289.18 164.071C289.436 163.687 289.836 163.389 290.38 163.175C290.924 162.951 291.634 162.839 292.508 162.839H294.796V164.295H292.78C292.194 164.295 291.788 164.391 291.564 164.583C291.351 164.775 291.244 165.015 291.244 165.303C291.244 165.623 291.367 165.879 291.612 166.071C291.868 166.253 292.215 166.343 292.652 166.343C293.068 166.343 293.442 166.247 293.772 166.055C294.103 165.853 294.343 165.559 294.492 165.175L294.876 166.327C294.695 166.882 294.364 167.303 293.884 167.591C293.404 167.879 292.786 168.023 292.028 168.023ZM299.157 167.895V159.287H301.637V162.647H305.381V159.287H307.877V167.895H305.381V164.679H301.637V167.895H299.157Z" fill="#181A1D"/>
<path d="M11.388 117.08C10.6414 117.08 9.95071 116.959 9.31604 116.716C8.69071 116.464 8.14471 116.114 7.67804 115.666C7.22071 115.209 6.86137 114.677 6.60004 114.07C6.33871 113.464 6.20804 112.796 6.20804 112.068C6.20804 111.34 6.33871 110.673 6.60004 110.066C6.86137 109.46 7.22537 108.932 7.69204 108.484C8.15871 108.027 8.70471 107.677 9.33004 107.434C9.96471 107.182 10.6554 107.056 11.402 107.056C12.158 107.056 12.8534 107.187 13.488 107.448C14.132 107.7 14.678 108.078 15.126 108.582L14.216 109.464C13.8427 109.072 13.4227 108.783 12.956 108.596C12.4894 108.4 11.99 108.302 11.458 108.302C10.9074 108.302 10.394 108.396 9.91804 108.582C9.45138 108.769 9.04538 109.03 8.70004 109.366C8.35471 109.702 8.08404 110.104 7.88804 110.57C7.70137 111.028 7.60804 111.527 7.60804 112.068C7.60804 112.61 7.70137 113.114 7.88804 113.58C8.08404 114.038 8.35471 114.434 8.70004 114.77C9.04538 115.106 9.45138 115.368 9.91804 115.554C10.394 115.741 10.9074 115.834 11.458 115.834C11.99 115.834 12.4894 115.741 12.956 115.554C13.4227 115.358 13.8427 115.06 14.216 114.658L15.126 115.54C14.678 116.044 14.132 116.427 13.488 116.688C12.8534 116.95 12.1534 117.08 11.388 117.08ZM18.0958 116.968V110.374L18.4318 110.724H15.3798V109.548H22.1558V110.724H19.1178L19.4398 110.374V116.968H18.0958ZM28.0801 116.968V115.4L28.0101 115.106V112.432C28.0101 111.863 27.8421 111.424 27.5061 111.116C27.1794 110.799 26.6848 110.64 26.0221 110.64C25.5834 110.64 25.1541 110.715 24.7341 110.864C24.3141 111.004 23.9594 111.196 23.6701 111.438L23.1101 110.43C23.4928 110.122 23.9501 109.889 24.4821 109.73C25.0234 109.562 25.5881 109.478 26.1761 109.478C27.1934 109.478 27.9774 109.726 28.5281 110.22C29.0788 110.715 29.3541 111.471 29.3541 112.488V116.968H28.0801ZM25.6441 117.052C25.0934 117.052 24.6081 116.959 24.1881 116.772C23.7774 116.586 23.4601 116.329 23.2361 116.002C23.0121 115.666 22.9001 115.288 22.9001 114.868C22.9001 114.467 22.9934 114.103 23.1801 113.776C23.3761 113.45 23.6888 113.188 24.1181 112.992C24.5568 112.796 25.1448 112.698 25.8821 112.698H28.2341V113.664H25.9381C25.2661 113.664 24.8134 113.776 24.5801 114C24.3468 114.224 24.2301 114.495 24.2301 114.812C24.2301 115.176 24.3748 115.47 24.6641 115.694C24.9534 115.909 25.3548 116.016 25.8681 116.016C26.3721 116.016 26.8108 115.904 27.1841 115.68C27.5668 115.456 27.8421 115.13 28.0101 114.7L28.2761 115.624C28.0988 116.063 27.7861 116.413 27.3381 116.674C26.8901 116.926 26.3254 117.052 25.6441 117.052ZM35.7082 117.052C35.0922 117.052 34.5276 116.912 34.0142 116.632C33.5102 116.343 33.1042 115.918 32.7962 115.358C32.4976 114.798 32.3482 114.098 32.3482 113.258C32.3482 112.418 32.4929 111.718 32.7822 111.158C33.0809 110.598 33.4822 110.178 33.9862 109.898C34.4996 109.618 35.0736 109.478 35.7082 109.478C36.4362 109.478 37.0802 109.637 37.6402 109.954C38.2002 110.272 38.6436 110.715 38.9702 111.284C39.2969 111.844 39.4602 112.502 39.4602 113.258C39.4602 114.014 39.2969 114.677 38.9702 115.246C38.6436 115.816 38.2002 116.259 37.6402 116.576C37.0802 116.894 36.4362 117.052 35.7082 117.052ZM31.7742 119.684V109.548H33.0622V111.55L32.9782 113.272L33.1182 114.994V119.684H31.7742ZM35.5962 115.876C36.0722 115.876 36.4969 115.769 36.8702 115.554C37.2529 115.34 37.5516 115.036 37.7662 114.644C37.9902 114.243 38.1022 113.781 38.1022 113.258C38.1022 112.726 37.9902 112.269 37.7662 111.886C37.5516 111.494 37.2529 111.191 36.8702 110.976C36.4969 110.762 36.0722 110.654 35.5962 110.654C35.1296 110.654 34.7049 110.762 34.3222 110.976C33.9489 111.191 33.6502 111.494 33.4262 111.886C33.2116 112.269 33.1042 112.726 33.1042 113.258C33.1042 113.781 33.2116 114.243 33.4262 114.644C33.6502 115.036 33.9489 115.34 34.3222 115.554C34.7049 115.769 35.1296 115.876 35.5962 115.876ZM48.7489 116.968V109.548H50.0929V116.968H48.7489ZM44.7589 112.068C45.7016 112.078 46.4156 112.292 46.9009 112.712C47.3956 113.132 47.6429 113.725 47.6429 114.49C47.6429 115.293 47.3722 115.914 46.8309 116.352C46.2989 116.782 45.5336 116.992 44.5349 116.982L41.4129 116.968V109.548H42.7569V112.054L44.7589 112.068ZM44.4369 115.96C45.0342 115.97 45.4916 115.848 45.8089 115.596C46.1262 115.344 46.2849 114.971 46.2849 114.476C46.2849 113.991 46.1262 113.636 45.8089 113.412C45.5009 113.188 45.0436 113.072 44.4369 113.062L42.7569 113.034V115.946L44.4369 115.96ZM56.0099 117.052C55.2165 117.052 54.5165 116.889 53.9099 116.562C53.3125 116.236 52.8459 115.788 52.5099 115.218C52.1832 114.649 52.0199 113.996 52.0199 113.258C52.0199 112.521 52.1785 111.868 52.4959 111.298C52.8225 110.729 53.2659 110.286 53.8259 109.968C54.3952 109.642 55.0345 109.478 55.7439 109.478C56.4625 109.478 57.0972 109.637 57.6479 109.954C58.1985 110.272 58.6279 110.72 58.9359 111.298C59.2532 111.868 59.4119 112.535 59.4119 113.3C59.4119 113.356 59.4072 113.422 59.3979 113.496C59.3979 113.571 59.3932 113.641 59.3839 113.706H53.0699V112.74H58.6839L58.1379 113.076C58.1472 112.6 58.0492 112.176 57.8439 111.802C57.6385 111.429 57.3539 111.14 56.9899 110.934C56.6352 110.72 56.2199 110.612 55.7439 110.612C55.2772 110.612 54.8619 110.72 54.4979 110.934C54.1339 111.14 53.8492 111.434 53.6439 111.816C53.4385 112.19 53.3359 112.619 53.3359 113.104V113.328C53.3359 113.823 53.4479 114.266 53.6719 114.658C53.9052 115.041 54.2272 115.34 54.6379 115.554C55.0485 115.769 55.5199 115.876 56.0519 115.876C56.4905 115.876 56.8872 115.802 57.2419 115.652C57.6059 115.503 57.9232 115.279 58.1939 114.98L58.9359 115.848C58.5999 116.24 58.1799 116.539 57.6759 116.744C57.1812 116.95 56.6259 117.052 56.0099 117.052ZM71.5847 112.992C71.034 113.226 70.4973 113.403 69.9747 113.524C69.4613 113.636 68.962 113.692 68.4767 113.692C67.282 113.692 66.3533 113.403 65.6907 112.824C65.0373 112.246 64.7107 111.42 64.7107 110.346V107.168H66.0827V110.192C66.0827 110.92 66.3067 111.48 66.7547 111.872C67.2027 112.264 67.828 112.46 68.6307 112.46C69.1067 112.46 69.592 112.4 70.0867 112.278C70.5907 112.157 71.0807 111.98 71.5567 111.746L71.5847 112.992ZM71.3467 116.968V107.168H72.7327V116.968H71.3467ZM78.8692 117.052C78.0759 117.052 77.3759 116.889 76.7692 116.562C76.1719 116.236 75.7052 115.788 75.3692 115.218C75.0426 114.649 74.8792 113.996 74.8792 113.258C74.8792 112.521 75.0379 111.868 75.3552 111.298C75.6819 110.729 76.1252 110.286 76.6852 109.968C77.2546 109.642 77.8939 109.478 78.6032 109.478C79.3219 109.478 79.9566 109.637 80.5072 109.954C81.0579 110.272 81.4872 110.72 81.7952 111.298C82.1126 111.868 82.2712 112.535 82.2712 113.3C82.2712 113.356 82.2666 113.422 82.2572 113.496C82.2572 113.571 82.2526 113.641 82.2432 113.706H75.9292V112.74H81.5432L80.9972 113.076C81.0066 112.6 80.9086 112.176 80.7032 111.802C80.4979 111.429 80.2132 111.14 79.8492 110.934C79.4946 110.72 79.0792 110.612 78.6032 110.612C78.1366 110.612 77.7212 110.72 77.3572 110.934C76.9932 111.14 76.7086 111.434 76.5032 111.816C76.2979 112.19 76.1952 112.619 76.1952 113.104V113.328C76.1952 113.823 76.3072 114.266 76.5312 114.658C76.7646 115.041 77.0866 115.34 77.4972 115.554C77.9079 115.769 78.3792 115.876 78.9112 115.876C79.3499 115.876 79.7466 115.802 80.1012 115.652C80.4652 115.503 80.7826 115.279 81.0532 114.98L81.7952 115.848C81.4592 116.24 81.0392 116.539 80.5352 116.744C80.0406 116.95 79.4852 117.052 78.8692 117.052ZM89.0323 113.93C88.6403 114.117 88.2343 114.266 87.8143 114.378C87.4036 114.481 86.9789 114.532 86.5403 114.532C85.6443 114.532 84.9349 114.322 84.4123 113.902C83.8989 113.482 83.6423 112.834 83.6423 111.956V109.548H84.9863V111.872C84.9863 112.404 85.1496 112.796 85.4763 113.048C85.8123 113.3 86.2603 113.426 86.8203 113.426C87.1749 113.426 87.5389 113.38 87.9123 113.286C88.2949 113.193 88.6683 113.062 89.0323 112.894V113.93ZM88.9343 116.968V109.548H90.2783V116.968H88.9343ZM98.2635 116.968L95.3935 113.356L96.4995 112.684L99.8455 116.968H98.2635ZM92.8875 116.968V109.548H94.2315V116.968H92.8875ZM93.8255 113.832V112.684H96.2755V113.832H93.8255ZM96.6115 113.412L95.3655 113.244L98.2075 109.548H99.6495L96.6115 113.412ZM105.668 116.968V115.4L105.598 115.106V112.432C105.598 111.863 105.43 111.424 105.094 111.116C104.767 110.799 104.273 110.64 103.61 110.64C103.171 110.64 102.742 110.715 102.322 110.864C101.902 111.004 101.547 111.196 101.258 111.438L100.698 110.43C101.081 110.122 101.538 109.889 102.07 109.73C102.611 109.562 103.176 109.478 103.764 109.478C104.781 109.478 105.565 109.726 106.116 110.22C106.667 110.715 106.942 111.471 106.942 112.488V116.968H105.668ZM103.232 117.052C102.681 117.052 102.196 116.959 101.776 116.772C101.365 116.586 101.048 116.329 100.824 116.002C100.6 115.666 100.488 115.288 100.488 114.868C100.488 114.467 100.581 114.103 100.768 113.776C100.964 113.45 101.277 113.188 101.706 112.992C102.145 112.796 102.733 112.698 103.47 112.698H105.822V113.664H103.526C102.854 113.664 102.401 113.776 102.168 114C101.935 114.224 101.818 114.495 101.818 114.812C101.818 115.176 101.963 115.47 102.252 115.694C102.541 115.909 102.943 116.016 103.456 116.016C103.96 116.016 104.399 115.904 104.772 115.68C105.155 115.456 105.43 115.13 105.598 114.7L105.864 115.624C105.687 116.063 105.374 116.413 104.926 116.674C104.478 116.926 103.913 117.052 103.232 117.052ZM112.792 117.08C112.176 117.08 111.63 116.982 111.154 116.786C110.687 116.59 110.286 116.301 109.95 115.918C109.614 115.526 109.357 115.036 109.18 114.448C109.012 113.851 108.928 113.151 108.928 112.348C108.928 111.714 108.984 111.144 109.096 110.64C109.208 110.136 109.367 109.688 109.572 109.296C109.787 108.904 110.048 108.564 110.356 108.274C110.673 107.985 111.028 107.747 111.42 107.56C111.821 107.364 112.26 107.215 112.736 107.112L116.124 106.356L116.32 107.602L113.198 108.274C113.011 108.312 112.787 108.368 112.526 108.442C112.265 108.517 111.999 108.634 111.728 108.792C111.457 108.942 111.205 109.152 110.972 109.422C110.739 109.693 110.552 110.048 110.412 110.486C110.272 110.916 110.202 111.448 110.202 112.082C110.202 112.26 110.207 112.395 110.216 112.488C110.225 112.582 110.235 112.675 110.244 112.768C110.263 112.862 110.277 113.002 110.286 113.188L109.726 112.614C109.875 112.101 110.113 111.653 110.44 111.27C110.767 110.888 111.159 110.594 111.616 110.388C112.083 110.174 112.591 110.066 113.142 110.066C113.833 110.066 114.444 110.216 114.976 110.514C115.517 110.813 115.942 111.224 116.25 111.746C116.558 112.269 116.712 112.866 116.712 113.538C116.712 114.22 116.549 114.831 116.222 115.372C115.905 115.904 115.452 116.324 114.864 116.632C114.276 116.931 113.585 117.08 112.792 117.08ZM112.918 115.96C113.394 115.96 113.814 115.858 114.178 115.652C114.542 115.438 114.827 115.153 115.032 114.798C115.237 114.434 115.34 114.028 115.34 113.58C115.34 113.132 115.237 112.736 115.032 112.39C114.827 112.045 114.542 111.774 114.178 111.578C113.814 111.373 113.385 111.27 112.89 111.27C112.423 111.27 112.003 111.368 111.63 111.564C111.257 111.751 110.967 112.017 110.762 112.362C110.557 112.698 110.454 113.09 110.454 113.538C110.454 113.986 110.557 114.397 110.762 114.77C110.977 115.134 111.266 115.424 111.63 115.638C112.003 115.853 112.433 115.96 112.918 115.96ZM125.968 116.968V109.548H127.312V116.968H125.968ZM121.978 112.068C122.92 112.078 123.634 112.292 124.12 112.712C124.614 113.132 124.862 113.725 124.862 114.49C124.862 115.293 124.591 115.914 124.05 116.352C123.518 116.782 122.752 116.992 121.754 116.982L118.632 116.968V109.548H119.976V112.054L121.978 112.068ZM121.656 115.96C122.253 115.97 122.71 115.848 123.028 115.596C123.345 115.344 123.504 114.971 123.504 114.476C123.504 113.991 123.345 113.636 123.028 113.412C122.72 113.188 122.262 113.072 121.656 113.062L119.976 113.034V115.946L121.656 115.96Z" fill="#181A1D"/>
</svg>
